<?xml version="1.0" encoding="utf-8"?>
<!-- Generator: Adobe Illustrator 28.1.0, SVG Export Plug-In . SVG Version: 6.00 Build 0)  -->
<svg version="1.1" id="Calque_1" xmlns="http://www.w3.org/2000/svg" xmlns:xlink="http://www.w3.org/1999/xlink" x="0px" y="0px"
	 viewBox="0 0 476.9 476.9" style="enable-background:new 0 0 476.9 476.9;" xml:space="preserve">
<style type="text/css">
	.st0{fill:#FFFFFF;}
</style>
<circle class="st0" cx="238.5" cy="238.5" r="238.5"/>
<g>
	<path d="M159,63.1c-71.5,60.9-47.4,144.7-15.9,183.1c41.6,50.6,126.4,63.1,180.7,15.4c15.4-13.8,2.9-57.8-51.7-44.8
		c-54.6,13-104.4-12.2-90.6-72.9c17-75,122.1-58.8,135.1-22.5c5.8,16.2,52.7,6.6,33.4-28.6C323.8,44,229.2,2.9,159,63.1"/>
	<path d="M264.9,162.4c9.5-36.6,62.3-25.4,83.5-5.8c44.5,41.1-17.2,98.8-17.2,98.8s62-89-26.2-64.1
		C265.5,202.7,263.1,169.6,264.9,162.4"/>
</g>
<g>
	<path d="M92.7,329.1c-1.1-2.1-2.9-4-5-5.6l0,0c-3.7-2.9-8.5-4.8-13.8-4.8c-0.3,0-0.3,0-0.5,0c0,0,0,0-0.3,0l0,0
		c-4.5,0-9.3,1.3-13.5,4.5c0,0,0,0-0.3,0l-0.3,0.3c-0.3,0-0.3,0.3-0.5,0.3l0,0c-1.1,0.8-2.1,1.9-2.9,2.9l0,0
		c-4,4.5-5.3,9.5-5.3,14.3v0.3c0,5.3,1.9,10.3,4.8,14l0,0c0.3,0.3,0.3,0.5,0.5,0.8c1.9,2.4,4.2,4.2,6.9,5.6c0,0,0.3,0,0.3,0.3
		c3.2,1.6,6.6,2.4,10.1,2.4h0.3h0.3c4.2,0,8.5-1.3,12.2-4l0,0c1.1-0.8,2.1-1.6,3.2-2.6l0,0c0,0,3.4-3.2,5-7.2
		c1.3-2.9,2.1-6.1,2.1-9.5C96.4,336.7,95.1,332.5,92.7,329.1 M85.6,346.3c-2.9,3.2-7.4,5.3-12.2,5.3h-0.3
		c-7.2-0.3-12.5-4.8-10.3-13.5c2.9-13.2,21.7-10.3,24.1-4c0.3,1.1,1.9,1.6,3.2,1.3c0,1.1-0.3,2.1-0.3,3.2
		C89,341.5,87.7,344.2,85.6,346.3"/>
	<path d="M194.2,329.1c-1.1-2.1-2.9-4-5-5.6l0,0c-3.7-2.9-8.5-4.8-13.8-4.8c-0.3,0-0.3,0-0.5,0c0,0,0,0-0.3,0l0,0
		c-4.5,0-9.3,1.3-13.5,4.5c0,0,0,0-0.3,0l-0.3,0.3c-0.3,0-0.3,0.3-0.5,0.3l0,0c-1.1,0.8-2.1,1.9-2.9,2.9l0,0
		c-4,4.5-5.3,9.5-5.3,14.3v0.3c0,5.3,1.9,10.3,4.8,14l0,0c0.3,0.3,0.3,0.5,0.5,0.8c1.9,2.4,4.2,4.2,6.9,5.6c0,0,0.3,0,0.3,0.3
		c3.2,1.6,6.6,2.4,10.1,2.4h0.3h0.3c4.2,0,8.5-1.3,12.2-4l0,0c1.1-0.8,2.1-1.6,3.2-2.6l0,0c0,0,3.4-3.2,5-7.2
		c1.3-2.9,2.1-6.1,2.1-9.5C197.9,336.7,196.6,332.5,194.2,329.1 M187.1,346.3c-2.9,3.2-7.4,5.3-12.2,5.3h-0.3
		c-7.2-0.3-12.5-4.8-10.3-13.5c2.9-13.2,21.7-10.3,24.1-4c0.3,1.1,1.9,1.6,3.2,1.3c0,1.1-0.3,2.1-0.3,3.2
		C190.5,341.5,189.2,344.2,187.1,346.3"/>
	<path d="M140.7,324.6c-3.7-3.7-8.2-5.8-14-5.8c-5,0-9.8,1.9-13.8,5.6l-0.5-5c-5.6,0-10.1,4.5-10.1,10.1v35h4.2
		c3.7,0,6.6-2.9,6.6-6.6V341c0-3.4,1.1-6.1,3.2-8.5c2.1-2.4,4.8-3.4,7.9-3.4c3.4,0,6.1,1.1,7.9,2.9c1.9,2.1,2.9,4.8,2.9,8.5v23.8
		h4.2c3.7,0,6.6-2.9,6.6-6.6v-17.2C146,333.6,144.1,328.3,140.7,324.6"/>
	<path d="M421,324.6c-3.7-3.7-8.2-5.8-14-5.8c-5,0-9.8,1.9-13.8,5.6l-0.5-5v-18c-5.6,0-10.1,4.5-10.1,10.1v53h4.2
		c3.7,0,6.6-2.9,6.6-6.6V341c0-3.4,1.1-6.1,3.2-8.5c2.1-2.4,4.8-3.4,7.9-3.4c3.4,0,6.1,1.1,7.9,2.9c1.9,2.1,2.9,4.8,2.9,8.5v23.8
		h4.2c3.7,0,6.6-2.9,6.6-6.6v-17.2C426.3,333.6,424.4,328.3,421,324.6"/>
	<path d="M274,318.7c-5,0-9.8,1.9-13.8,5.6l-0.5-5c-5.6,0-10.1,4.5-10.1,10.1v35h4.2c3.7,0,6.6-2.9,6.6-6.6V341
		c0-3.4,1.1-6.1,3.2-8.5c2.1-2.4,4.8-3.4,7.9-3.4"/>
	<path d="M312.4,319.5l-0.3,5c-1.3-1.6-2.9-2.6-4.8-3.7c-2.9-1.3-5.8-2.1-9-2.1c-6.6,0-12.2,2.1-16.4,6.1c-4.5,4.2-6.6,9.8-6.6,17
		c0,7.4,2.1,13.2,6.4,17.5c4.2,4,9.8,6.1,16.2,6.1h0.3c2.9,0,6.1-0.8,9-2.1c2.1-1.1,3.7-2.4,5-4l0.3,5h3.7c3.7,0,6.6-2.9,6.6-6.6
		v-38.2H312.4z M311.8,344.7c-0.5,1.9-1.1,3.7-2.1,5.3c-0.8,1.6-2.4,2.9-4.2,3.7c-1.9,1.1-4,1.6-6.4,1.6c-3.7,0-6.6-1.3-9.3-3.7
		c-2.4-2.4-3.7-5.6-3.7-9.8c0-4,1.3-7.2,3.7-9.5c2.4-2.4,5.6-3.7,9.3-3.7c2.4,0,4.5,0.5,6.4,1.6c1.9,1.1,3.2,2.1,4.2,3.7
		s1.6,3.4,2.1,5.3C312.4,341,312.4,342.8,311.8,344.7"/>
	<path d="M370.4,325.4c-4.2-4.2-9.5-6.6-16.2-6.6c-3.2,0-6.1,0.8-9,2.1c-2.1,1.1-4,2.4-5.3,4l-0.5-5.3c-5.6,0-10.3,4.5-10.3,10.3
		v54.3h1.6c9-1.1,9.3-10.9,9.3-10.9v-13.5c1.3,1.6,3.2,2.6,5.3,3.4c2.9,1.3,5.8,1.9,9,1.9c6.9,0,12.5-2.1,16.4-6.6
		c4-4.2,6.1-10.1,6.1-16.7S374.6,329.6,370.4,325.4 M362.4,351.1c-2.4,2.4-5.3,3.4-9,3.4c-3.7,0-6.6-1.1-9-3.7
		c-2.4-2.4-3.4-5.3-3.4-9s1.1-6.6,3.4-9c2.4-2.4,5.3-3.7,9-3.7c3.7,0,6.9,1.1,9.3,3.4c2.4,2.4,3.4,5.3,3.4,9.3
		C365.9,345.8,364.8,348.7,362.4,351.1 M329.1,384.2L329.1,384.2L329.1,384.2L329.1,384.2L329.1,384.2z"/>
	<path d="M237.1,351.1c1.6-1.1,3.2-2.4,4.2-4c1.9-2.6,2.6-5.8,2.6-9.3c0-3.7-1.3-7.4-3.7-10.6c1.1-1.3,1.6-3.2,1.6-4.8
		c-0.3-1.9-1.1-3.4-2.4-4.5l-2.9-2.1l-4,4.8c-2.4-1.3-5.3-1.9-8.7-1.9c-5.6,0-10.3,1.6-14.3,5c-4,3.4-6.1,8.2-6.1,14
		s1.9,10.6,5.8,14c3.7,3.4,8.7,5,14.8,5c2.9,0,5.3,0.5,6.9,1.6c1.6,1.1,2.1,2.1,2.1,4c0,1.6-0.8,2.6-2.4,3.7
		c-1.9,1.1-4.2,1.6-6.9,1.6s-5-0.8-6.9-1.9c-1.6-1.1-2.4-2.6-2.4-4.5v-1.9h-10.9v1.9c-0.3,5.3,1.6,9.5,5.3,12.7
		c3.7,2.9,8.5,4.5,14.6,4.5c5.3,0,10.1-1.3,14-4c4.2-2.9,6.4-6.9,6.4-11.9C243.7,357.4,241.4,353.7,237.1,351.1 M232.9,337.8
		c0,2.6-0.8,4.5-2.6,6.4c-1.9,1.6-4,2.4-6.6,2.4c-2.9,0-5-0.8-6.9-2.4c-1.9-1.6-2.6-3.7-2.6-6.4c0-2.9,0.8-5,2.6-6.4
		c1.9-1.6,4.2-2.4,6.9-2.4c2.6,0,4.8,0.8,6.6,2.4C232.1,333,232.9,335.2,232.9,337.8"/>
</g>
</svg>
